<svg xmlns="http://www.w3.org/2000/svg" fill="none" viewBox="0 0 40 40" height="40" width="40">
  <g clip-path="url(#a)">

    <path fill="#00034a" stroke="#00034a" d="M3 21c0-8.7 6.7-15.8 15.3-15.8 6.1 0 8.9 4.1 10.7 8l.9 1.9H37a3 3 0 1 1 0 6h-8.8c-1.1 0-2.1-.6-2.7-1.5l-3-5.6-4.4 10.3c-.5 1.2-1.7 2-3 2-1.3 0-2.5-.8-3-2l-2-5.3-1 1.9A3 3 0 0 1 6.5 23H3v-2Z" stroke-width="1"/>
    <path fill="#9bff00" stroke="#00034a" d="M3.8 20c0-7.9 6.1-14.3 13.8-14.3 5.6 0 8.2 3.8 9.9 7.4l1.2 2.5H37a2 2 0 1 1 0 4h-8.6c-.8 0-1.6-.5-2-1.2l-4.1-7.6-5.2 12.1a2 2 0 0 1-3.8-.1l-2.5-6.6-1.8 3.4c-.3.6-1 .9-1.7.9H3.8Z" stroke-width="1"/>
  </g>
  <defs>
    <clipPath id="a"><path fill="#ffffff" d="M0 0h40v40H0z" stroke-width="1"/></clipPath>
  </defs>
</svg>
