<svg xmlns="http://www.w3.org/2000/svg" fill="none" viewBox="0 0 40 40" height="40" width="40">
  <g clip-path="url(#a)">

    <path fill="#00034a" stroke="#00034a" d="M18 3.4a4 4 0 0 1 6.9 0l13.3 22.8A4 4 0 0 1 34.7 32H8.3a4 4 0 0 1-3.5-5.8L18 3.4Z" stroke-width="1"/>
    <path fill="#9bff00" stroke="#00034a" d="M19.2 4.5a2.8 2.8 0 0 1 4.8 0l12 20.6A2.8 2.8 0 0 1 33.6 29H6.4A2.8 2.8 0 0 1 4 25L19.2 4.5Z" stroke-width="1"/>
    <path stroke="#00034a" stroke-linecap="round" d="M20 12v8" stroke-width="1.8"/>
    <circle fill="#00034a" cx="20" cy="24" r="1.3"/>
  </g>
  <defs>
    <clipPath id="a"><path fill="#ffffff" d="M0 0h40v40H0z" stroke-width="1"/></clipPath>
  </defs>
</svg>
