<svg xmlns="http://www.w3.org/2000/svg" fill="none" viewBox="0 0 40 40" height="40" width="40">
  <g clip-path="url(#a)">

    <path fill="#00034a" stroke="#00034a" d="M12 5.5c1.8 0 3.5 1.8 3.5 3.5v15.3h3.3L12 31l-6.8-6.7h3.3V9c0-1.7 1.7-3.5 3.5-3.5Zm16 3.5V24.3h3.3L24.5 31 17.7 24.3H21V9c0-1.7 1.7-3.5 3.5-3.5S28 7.3 28 9Z" stroke-width="1"/>
    <path fill="#9bff00" stroke="#00034a" d="M12 7c1 0 2 .9 2 2v17.5h2.5L12 31 7.5 26.5H10V9c0-1.1 1-2 2-2Zm12.5 0c1 0 2 .9 2 2v17.5H29L24.5 31 20 26.5h2.5V9c0-1.1 1-2 2-2Z" stroke-width="1"/>
  </g>
  <defs>
    <clipPath id="a"><path fill="#ffffff" d="M0 0h40v40H0z" stroke-width="1"/></clipPath>
  </defs>
</svg>
