<svg xmlns="http://www.w3.org/2000/svg" fill="none" viewBox="0 0 40 40" height="40" width="40">
  <g clip-path="url(#a)">

    <path fill="#00034a" stroke="#00034a" d="M20 6C10.6 6 4.4 13.8 2.5 17c-.7 1.1-.7 2.9 0 4 2 3.2 8.1 11 17.5 11s15.6-7.8 17.5-11c.7-1.1.7-2.9 0-4C35.6 13.8 29.4 6 20 6Z" stroke-width="1"/>
    <path fill="#9bff00" stroke="#00034a" d="M20 7.4c8.6 0 14.4 7.3 16.1 10 .4.7.4 1.9 0 2.6-1.7 2.7-7.5 10-16 10S5.6 22.7 3.9 20a2.4 2.4 0 0 1 0-2.6c1.7-2.7 7.5-10 16-10Z" stroke-width="1"/>
    <circle fill="#ffffff" stroke="#00034a" cx="20" cy="18.7" r="6.2" stroke-width="1"/>
    <circle fill="#00034a" cx="20" cy="18.7" r="2.2"/>
  </g>
  <defs>
    <clipPath id="a"><path fill="#ffffff" d="M0 0h40v40H0z" stroke-width="1"/></clipPath>
  </defs>
</svg>
