<svg xmlns="http://www.w3.org/2000/svg" fill="none" viewBox="0 0 40 40" height="40" width="40">
  <g clip-path="url(#a)">

    <path fill="#00034a" stroke="#00034a" d="M11 2.8h12.8l6.6 6.5v22.2a4 4 0 0 1-4 4H11a4 4 0 0 1-4-4V6.8a4 4 0 0 1 4-4Z" stroke-width="1"/>
    <path fill="#9bff00" stroke="#00034a" d="M10 3.8h12.1l6.3 6.2v21a3.5 3.5 0 0 1-3.5 3.5H10a3.5 3.5 0 0 1-3.5-3.5V7.3A3.5 3.5 0 0 1 10 3.8Z" stroke-width="1"/>
    <path fill="#ffffff" stroke="#00034a" d="M22.1 3.8v6.3h6.3" stroke-width="1"/>
    <path stroke="#00034a" stroke-linecap="round" d="M12.8 15h14.4M12.8 20h14.4M12.8 25h10.2" stroke-width="1.3"/>
  </g>
  <defs>
    <clipPath id="a"><path fill="#ffffff" d="M0 0h40v40H0z" stroke-width="1"/></clipPath>
  </defs>
</svg>
