<svg xmlns="http://www.w3.org/2000/svg" fill="none" viewBox="0 0 40 40" height="40" width="40">
  <g clip-path="url(#a)">

    <path fill="#00034a" stroke="#00034a" d="M13 17v-4.5C13 7.8 16.8 4 21.5 4S30 7.8 30 12.5V17h1.5a4 4 0 0 1 4 4v11a4 4 0 0 1-4 4H12.5a4 4 0 0 1-4-4V21a4 4 0 0 1 4-4H13Z" stroke-width="1"/>
    <path fill="#9bff00" stroke="#00034a" d="M14.5 17v-4.5a7 7 0 1 1 14 0V17h2a3 3 0 0 1 3 3v10a3 3 0 0 1-3 3h-18a3 3 0 0 1-3-3V20a3 3 0 0 1 3-3h2Z" stroke-width="1"/>
    <circle fill="#ffffff" stroke="#00034a" cx="21.5" cy="24" r="2.8" stroke-width="1"/>
    <path stroke="#00034a" stroke-linecap="round" d="M21.5 26.8v3.4" stroke-width="1.2"/>
  </g>
  <defs>
    <clipPath id="a"><path fill="#ffffff" d="M0 0h40v40H0z" stroke-width="1"/></clipPath>
  </defs>
</svg>
