<svg xmlns="http://www.w3.org/2000/svg" fill="none" viewBox="0 0 40 40" height="40" width="40">
  <g clip-path="url(#a)">

    <path fill="#00034a" stroke="#00034a" d="M33.5 11.2V4l-6.3 6.4h3.4a11.8 11.8 0 0 0-20.4 6.1 3.2 3.2 0 1 0 6.3 1.1 5.5 5.5 0 0 1 9.6-2.8h-3.4l6.4 6.3 4.4-4.4Zm-27 17.6v7.2l6.3-6.4H9.4a11.8 11.8 0 0 0 20.4-6.1 3.2 3.2 0 1 0-6.3-1.1 5.5 5.5 0 0 1-9.6 2.8h3.4L10.9 19l-4.4 4.4Z" stroke-width="1"/>
    <path fill="#9bff00" stroke="#00034a" d="M31.8 10V6.2l-3.2 3.2h1.2A10.4 10.4 0 0 0 11.5 15a2 2 0 1 0 4 .7 6.9 6.9 0 0 1 12-3.7h-2.2l4 4 2.5-2.5Zm-23.6 20v3.8l3.2-3.2h-1.2A10.4 10.4 0 0 0 28.5 25a2 2 0 1 0-4-.7 6.9 6.9 0 0 1-12 3.7h2.2l-4-4L8.2 26.5Z" stroke-width="1"/>
  </g>
  <defs>
    <clipPath id="a"><path fill="#ffffff" d="M0 0h40v40H0z" stroke-width="1"/></clipPath>
  </defs>
</svg>
