<svg xmlns="http://www.w3.org/2000/svg" fill="none" viewBox="0 0 40 40" height="40" width="40">
  <g clip-path="url(#a)">

    <path fill="#00034a" stroke="#00034a" d="M13 4h4.2a4 4 0 0 1 5.6 0H27a4 4 0 0 1 4 4v24a4 4 0 0 1-4 4H13a4 4 0 0 1-4-4V8a4 4 0 0 1 4-4Z" stroke-width="1"/>
    <path fill="#9bff00" stroke="#00034a" d="M14 5.5h3.5a3 3 0 0 0 5 0H26a3 3 0 0 1 3 3v22a3 3 0 0 1-3 3H14a3 3 0 0 1-3-3v-22a3 3 0 0 1 3-3Z" stroke-width="1"/>
    <rect fill="#ffffff" stroke="#00034a" x="15" y="4" width="10" height="4.5" rx="2.2" stroke-width="1"/>
    <path fill="#ffffff" stroke="#00034a" stroke-linecap="round" stroke-linejoin="round" d="m14.5 20.5 3.5 3.5 8-8" stroke-width="1.6"/>
  </g>
  <defs>
    <clipPath id="a"><path fill="#ffffff" d="M0 0h40v40H0z" stroke-width="1"/></clipPath>
  </defs>
</svg>
