<svg xmlns="http://www.w3.org/2000/svg" fill="none" viewBox="0 0 40 40" height="40" width="40">
  <g clip-path="url(#a)">

    <path fill="#00034a" stroke="#00034a" d="M11.8 9.2 2.5 18.5a2.2 2.2 0 0 0 0 3.1l9.3 9.2c1.4 1.4 3.6 1.4 5 0s1.4-3.6 0-5l-6.8-6.7 6.8-6.8a3.5 3.5 0 1 0-5-5Zm16.4 0a3.5 3.5 0 0 0-5 5l6.8 6.8-6.8 6.7a3.5 3.5 0 1 0 5 5l9.3-9.2a2.2 2.2 0 0 0 0-3.1l-9.3-9.3Z" stroke-width="1"/>
    <path fill="#9bff00" stroke="#00034a" d="M11.4 10.6 4.6 17.4a2.3 2.3 0 0 0 0 3.2l6.8 6.8a2.6 2.6 0 0 0 3.7-3.7l-6.2-6.2 6.2-6.2a2.6 2.6 0 1 0-3.7-3.7Zm17.2 0a2.6 2.6 0 1 0-3.7 3.7l6.2 6.2-6.2 6.2a2.6 2.6 0 0 0 3.7 3.7l6.8-6.8a2.3 2.3 0 0 0 0-3.2l-6.8-6.8Z" stroke-width="1"/>
  </g>
  <defs>
    <clipPath id="a"><path fill="#ffffff" d="M0 0h40v40H0z" stroke-width="1"/></clipPath>
  </defs>
</svg>
