<svg xmlns="http://www.w3.org/2000/svg" width="40" height="40" viewBox="0 0 40 40" fill="none">
  <title>Cpu</title>
  <g stroke="#00034a" stroke-width="1.5" stroke-linecap="round" stroke-linejoin="round">
    <rect x="11" y="11" width="18" height="18" rx="3" fill="#9bff00" />
    <rect x="15" y="15" width="10" height="10" rx="2" fill="#ffffff" />
    <line x1="14" y1="7" x2="14" y2="11" />
    <line x1="20" y1="7" x2="20" y2="11" />
    <line x1="26" y1="7" x2="26" y2="11" />
    <line x1="14" y1="29" x2="14" y2="33" />
    <line x1="20" y1="29" x2="20" y2="33" />
    <line x1="26" y1="29" x2="26" y2="33" />
    <line x1="7" y1="14" x2="11" y2="14" />
    <line x1="7" y1="20" x2="11" y2="20" />
    <line x1="7" y1="26" x2="11" y2="26" />
    <line x1="29" y1="14" x2="33" y2="14" />
    <line x1="29" y1="20" x2="33" y2="20" />
    <line x1="29" y1="26" x2="33" y2="26" />
  </g>
</svg>
