<svg xmlns="http://www.w3.org/2000/svg" fill="none" viewBox="0 0 40 40" height="40" width="40">
  <g clip-path="url(#a)">

    <ellipse fill="#00034a" stroke="#00034a" cx="20" cy="8.5" rx="13.5" ry="5.5" stroke-width="1"/>
    <path fill="#00034a" stroke="#00034a" d="M6.5 8.5v20c0 3 6 5.5 13.5 5.5s13.5-2.4 13.5-5.5v-20H6.5Z" stroke-width="1"/>
    <ellipse fill="#9bff00" stroke="#00034a" cx="20" cy="8.5" rx="12" ry="4" stroke-width="1"/>
    <path fill="#9bff00" stroke="#00034a" d="M8 8.5v18c0 2.2 5.4 4 12 4s12-1.8 12-4v-18" stroke-width="1"/>
    <path stroke="#00034a" d="M8 17c0 2.2 5.4 4 12 4s12-1.8 12-4M8 24c0 2.2 5.4 4 12 4s12-1.8 12-4" stroke-width="1"/>
  </g>
  <defs>
    <clipPath id="a"><path fill="#ffffff" d="M0 0h40v40H0z" stroke-width="1"/></clipPath>
  </defs>
</svg>
