<svg xmlns="http://www.w3.org/2000/svg" width="40" height="40" viewBox="0 0 40 40" fill="none">
  <title>Fingerprint</title>
  <g stroke="#00034a" stroke-width="1.5" stroke-linecap="round" stroke-linejoin="round">
    <path d="M12 18c0-5 3-8 8-8s8 3 8 8" fill="none" />
    <path d="M10 20c0-7 4-12 10-12s10 5 10 12" fill="none" />
    <path d="M14 22c0 4-1 7-3 10" fill="none" />
    <path d="M20 12c3 0 5 2 5 5 0 6-1 11-4 15" fill="none" />
    <path d="M8 24c0 4-1 6-2 8" fill="none" />
    <path d="M18 16c-2 1-3 3-3 6 0 4-1 7-2 10" fill="none" />
  </g>
</svg>
