<svg xmlns="http://www.w3.org/2000/svg" fill="none" viewBox="0 0 40 40" height="40" width="40">
  <g clip-path="url(#a)">

    <circle fill="#00034a" stroke="#00034a" cx="20" cy="20" r="17" stroke-width="1"/>
    <circle fill="#9bff00" stroke="#00034a" cx="20" cy="20" r="15.5" stroke-width="1"/>
    <path stroke="#00034a" d="M5 20h30M20 5c4 4 6 9.3 6 15s-2 11-6 15c-4-4-6-9.3-6-15s2-11 6-15Zm-10 5.5c2.8 2.2 6.2 3.5 10 3.5s7.2-1.3 10-3.5M10 29.5c2.8-2.2 6.2-3.5 10-3.5s7.2 1.3 10 3.5" stroke-width="1.1"/>
  </g>
  <defs>
    <clipPath id="a"><path fill="#ffffff" d="M0 0h40v40H0z" stroke-width="1"/></clipPath>
  </defs>
</svg>
