<svg xmlns="http://www.w3.org/2000/svg" fill="none" viewBox="0 0 40 40" height="40" width="40">
  <g clip-path="url(#a)">

    <path fill="#00034a" stroke="#00034a" d="M8 6h24a4 4 0 0 1 4 4v15H4V10a4 4 0 0 1 4-4Zm-6 19h36v4.5A4.5 4.5 0 0 1 33.5 34h-27A4.5 4.5 0 0 1 2 29.5V25Z" stroke-width="1"/>
    <path fill="#9bff00" stroke="#00034a" d="M9 7.5h22a3 3 0 0 1 3 3v13H6v-13a3 3 0 0 1 3-3Zm-5.5 18h33V29a3.5 3.5 0 0 1-3.5 3.5H7A3.5 3.5 0 0 1 3.5 29v-3.5Z" stroke-width="1"/>
    <rect fill="#ffffff" stroke="#00034a" x="16" y="27.2" width="8" height="1.6" rx=".8" stroke-width="1"/>
  </g>
  <defs>
    <clipPath id="a"><path fill="#ffffff" d="M0 0h40v40H0z" stroke-width="1"/></clipPath>
  </defs>
</svg>
