<svg xmlns="http://www.w3.org/2000/svg" fill="none" viewBox="0 0 40 40" height="40" width="40">
  <g clip-path="url(#a)">

    <path fill="#00034a" stroke="#00034a" d="M18.5 4.5c2.5 0 4.5 1.8 4.5 4.2 0 .8-.3 1.6-.8 2.3H28a4 4 0 0 1 4 4v5.8c-.7-.5-1.5-.8-2.3-.8-2.4 0-4.2 2-4.2 4.5 0 2.5 1.8 4.5 4.2 4.5.8 0 1.6-.3 2.3-.8v2.3a4 4 0 0 1-4 4H12a4 4 0 0 1-4-4v-5.8c-.7.5-1.5.8-2.3.8-2.4 0-4.2-2-4.2-4.5S3.3 16.5 5.7 16.5c.8 0 1.6.3 2.3.8V11a4 4 0 0 1 4-4h2.2c-.5-.7-.8-1.5-.8-2.3 0-2.4 2-4.2 5.1-4.2Z" stroke-width="1"/>
    <path fill="#9bff00" stroke="#00034a" d="M18.6 5.7c1.8 0 3.3 1.3 3.3 3 0 1-.5 1.9-1.4 2.5l-.9.7h8.1a2.9 2.9 0 0 1 2.8 2.8v5.9l-.7-.4a4.1 4.1 0 0 0-2-.6c-1.7 0-3 1.5-3 3.3 0 1.8 1.3 3.3 3 3.3.7 0 1.3-.2 2-.6l.7-.4v4a2.9 2.9 0 0 1-2.8 2.8H12.3a2.9 2.9 0 0 1-2.8-2.8v-7.8l-.9.7c-.6.5-1.5.8-2.4.8-1.7 0-3-1.5-3-3.3 0-1.8 1.3-3.3 3-3.3.9 0 1.8.3 2.4.8l.9.7v-7.8a2.9 2.9 0 0 1 2.8-2.8h4l-.7-.9a3 3 0 0 1-.6-1.8c0-1.7 1.5-3 3.6-3Z" stroke-width="1"/>
  </g>
  <defs>
    <clipPath id="a"><path fill="#ffffff" d="M0 0h40v40H0z" stroke-width="1"/></clipPath>
  </defs>
</svg>
