<svg xmlns="http://www.w3.org/2000/svg" fill="none" viewBox="0 0 40 40" height="40" width="40">
  <g clip-path="url(#a)">

    <path stroke="#00034a" stroke-linecap="round" stroke-linejoin="round" d="M13 7H9a4 4 0 0 0-4 4v4M27 7h4a4 4 0 0 1 4 4v4M13 33H9a4 4 0 0 1-4-4v-4M27 33h4a4 4 0 0 0 4-4v-4" stroke-width="2"/>
    <rect fill="#00034a" stroke="#00034a" x="10" y="10" width="20" height="20" rx="7" stroke-width="1"/>
    <rect fill="#9bff00" stroke="#00034a" x="11.5" y="11.5" width="17" height="17" rx="6" stroke-width="1"/>
    <circle fill="#ffffff" stroke="#00034a" cx="20" cy="20" r="4" stroke-width="1"/>
  </g>
  <defs>
    <clipPath id="a"><path fill="#ffffff" d="M0 0h40v40H0z" stroke-width="1"/></clipPath>
  </defs>
</svg>
