<svg xmlns="http://www.w3.org/2000/svg" fill="none" viewBox="0 0 40 40" height="40" width="40">
  <g clip-path="url(#a)">

    <path fill="#00034a" stroke="#00034a" d="M25 4h5v7h2.2a3.8 3.8 0 0 1 3.8 3.8v3.7a8.8 8.8 0 0 1-8.8 8.8h-3.7v4.5a3.2 3.2 0 1 1-6.4 0v-4.5h-2A8.8 8.8 0 0 1 6.2 18.5v-3.7A3.8 3.8 0 0 1 10 11h2V4h5v7h8V4Z" stroke-width="1"/>
    <path fill="#9bff00" stroke="#00034a" d="M26 5.5h2v7h3.6a2.8 2.8 0 0 1 2.8 2.8v2.8a7.2 7.2 0 0 1-7.2 7.2h-4.5v6a1.8 1.8 0 1 1-3.6 0v-6h-3a7.2 7.2 0 0 1-7.2-7.2v-2.8a2.8 2.8 0 0 1 2.8-2.8h3.2v-7h2v7h9.2v-7Z" stroke-width="1"/>
  </g>
  <defs>
    <clipPath id="a"><path fill="#ffffff" d="M0 0h40v40H0z" stroke-width="1"/></clipPath>
  </defs>
</svg>
