<svg xmlns="http://www.w3.org/2000/svg" fill="none" viewBox="0 0 40 40" height="40" width="40">
  <g clip-path="url(#a)">

    <path fill="#00034a" stroke="#00034a" d="M2 7.5 6 3.5l31.5 31.5-4 4L24.4 30a7.9 7.9 0 0 1-5.4 2 3.8 3.8 0 0 1 0 7.6 3.8 3.8 0 0 1 0-7.6l-17-17a3.2 3.2 0 0 1 0-4.5Z" stroke-width="1"/>
    <path fill="#9bff00" stroke="#00034a" d="m3.4 7.5 2.2-2.2L36.1 35.7 34 38l-9.3-9.2c-1.7 1.2-3.7 1.8-5.8 1.8a2.4 2.4 0 1 0 0 4.8 2.4 2.4 0 0 0 0-4.8L3.4 15a1.8 1.8 0 0 1 0-2.5Z" stroke-width="1"/>
    <path stroke="#00034a" stroke-linecap="round" d="M8.1 16.8A18.7 18.7 0 0 1 20 12.7c5 0 9.7 1.9 13.2 5.4m-13 2.8c2.8 0 5.5 1.1 7.5 3m-13.3 2.8a6.2 6.2 0 0 1 4-1.4" stroke-width="1.2"/>
  </g>
  <defs>
    <clipPath id="a"><path fill="#ffffff" d="M0 0h40v40H0z" stroke-width="1"/></clipPath>
  </defs>
</svg>
