<svg xmlns="http://www.w3.org/2000/svg" fill="none" viewBox="0 0 40 40" height="40" width="40">
  <g clip-path="url(#a)">

    <path fill="#00034a" stroke="#00034a" d="M28.7 3.2c2.2 0 4.4.8 6 2.4l-4.7 4.7.7 3.5 3.5.7 4.7-4.7c2.9 5.6 1.2 12.6-4 16.2L20.6 40l-7-7 14.1-14.2a11.5 11.5 0 0 1 .9-15.6Z" stroke-width="1"/>
    <path fill="#9bff00" stroke="#00034a" d="M28.2 4.5c1.5 0 3 .4 4.3 1.3l-3.7 3.8 1 5 5 1 3.7-3.8c1 3.2.1 6.8-2.4 9.3L22.2 35.1l-4.3-4.2 14-14.1a10.2 10.2 0 0 1-3.7-12.3Z" stroke-width="1"/>
    <circle fill="#ffffff" stroke="#00034a" cx="12" cy="28" r="4.2" stroke-width="1"/>
  </g>
  <defs>
    <clipPath id="a"><path fill="#ffffff" d="M0 0h40v40H0z" stroke-width="1"/></clipPath>
  </defs>
</svg>
