<svg xmlns="http://www.w3.org/2000/svg" viewBox="0 0 832 280">
  <rect width="832" height="280" fill="#f57c00"/>
  <g transform="translate(28 46)">
    <g fill="#1f1b18" opacity="0.95">
      <path d="M37 40c0-16 14-29 30-29h52c17 0 31 13 31 29v56c0 8-4 16-11 21 6 5 10 13 10 21v13c0 17-14 30-31 30H67c-16 0-30-13-30-30V40Z" transform="translate(8 10)"/>
      <path d="M179 40c0-16 14-29 30-29h52c17 0 31 13 31 29v56c0 8-4 16-11 21 6 5 10 13 10 21v13c0 17-14 30-31 30h-51c-16 0-30-13-30-30V40Z" transform="translate(8 10)"/>
      <path d="M315 12h48c20 0 34 13 34 32v104c0 18-14 32-34 32h-49c-16 0-30-13-30-30V42c0-18 12-30 31-30Z" transform="translate(8 10)"/>
      <path d="M405 19c0-4 3-8 8-8h34c4 0 8 4 8 8v72l58-75c3-4 8-5 13-5h33c7 0 10 8 5 13l-51 59 56 88c4 6 0 14-7 14h-33c-4 0-7-2-9-5l-37-61-28 31v27c0 4-4 8-8 8h-34c-5 0-8-4-8-8V19Z" transform="translate(8 10)"/>
      <path d="M594 54c0-24 18-42 45-42h94c5 0 8 4 8 8v26c0 4-3 8-8 8h-31v122c0 4-4 8-8 8h-34c-4 0-8-4-8-8V54h-13c-4 0-8 4-8 8v48c0 24-18 42-45 42h-16v24c0 4-4 8-8 8h-34c-4 0-8-4-8-8V20c0-4 4-8 8-8h34c4 0 8 4 8 8v92h13c5 0 8-4 8-8V54Z" transform="translate(8 10)"/>
      <path d="M739 20c0-4 4-8 8-8h34c4 0 8 4 8 8v156c0 4-4 8-8 8h-34c-4 0-8-4-8-8V20Z" transform="translate(8 10)"/>
    </g>
    <g fill="#f5f5f5" stroke="#1f1b18" stroke-width="5" stroke-linejoin="round">
      <path d="M37 40c0-16 14-29 30-29h52c17 0 31 13 31 29v56c0 8-4 16-11 21 6 5 10 13 10 21v13c0 17-14 30-31 30H67c-16 0-30-13-30-30V40Z"/>
      <path d="M179 40c0-16 14-29 30-29h52c17 0 31 13 31 29v56c0 8-4 16-11 21 6 5 10 13 10 21v13c0 17-14 30-31 30h-51c-16 0-30-13-30-30V40Z"/>
      <path d="M315 12h48c20 0 34 13 34 32v104c0 18-14 32-34 32h-49c-16 0-30-13-30-30V42c0-18 12-30 31-30Z"/>
      <path d="M405 19c0-4 3-8 8-8h34c4 0 8 4 8 8v72l58-75c3-4 8-5 13-5h33c7 0 10 8 5 13l-51 59 56 88c4 6 0 14-7 14h-33c-4 0-7-2-9-5l-37-61-28 31v27c0 4-4 8-8 8h-34c-5 0-8-4-8-8V19Z"/>
      <path d="M594 54c0-24 18-42 45-42h94c5 0 8 4 8 8v26c0 4-3 8-8 8h-31v122c0 4-4 8-8 8h-34c-4 0-8-4-8-8V54h-13c-4 0-8 4-8 8v48c0 24-18 42-45 42h-16v24c0 4-4 8-8 8h-34c-4 0-8-4-8-8V20c0-4 4-8 8-8h34c4 0 8 4 8 8v92h13c5 0 8-4 8-8V54Z"/>
      <path d="M739 20c0-4 4-8 8-8h34c4 0 8 4 8 8v156c0 4-4 8-8 8h-34c-4 0-8-4-8-8V20Z"/>
    </g>
    <g fill="#f57c00" opacity="0.96">
      <path d="M82 98h17c6 0 11 5 11 11v17c0 6-5 11-11 11H82c-6 0-11-5-11-11v-17c0-6 5-11 11-11Z"/>
      <path d="M224 98h17c6 0 11 5 11 11v17c0 6-5 11-11 11h-17c-6 0-11-5-11-11v-17c0-6 5-11 11-11Z"/>
    </g>
  </g>
</svg>
